<?xml version="1.0" encoding="UTF-8"?><svg xmlns="http://www.w3.org/2000/svg" viewBox="0 0 243.62 234.89"><defs><style>.d{fill:#009fe3;}.e{fill:#662d91;}.f{fill:#87caa7;}.g{fill:#231f20;mix-blend-mode:multiply;opacity:.3;}.h{isolation:isolate;}</style></defs><g class="h"><g id="a"/><g id="b"><g id="c"><g><g><circle class="f" cx="89.56" cy="125.01" r="10.83"/><circle class="f" cx="121.96" cy="125.01" r="10.83"/><circle class="f" cx="154.35" cy="125.01" r="10.83"/></g><path class="e" d="M177.57,51.2c0,.19-.01,.37-.01,.56,0,.52,.01,1.03,.01,1.56v20.83c0,21.34,4.83,31.76,20.83,36.07-16,4.57-20.83,15.5-20.83,36.84v19.31c0,22.61-6.35,30.49-32.01,30.49h0c-25.66,0-32.01-7.88-32.01-30.49v-4.19h-27.21c.02,2.44,.03,5.01,.03,7.75v10.16c0,36.33,25.91,39.63,59.19,39.63h0c33.28,0,59.19-3.3,59.19-39.63v-10.16c0-37.09,.51-46.74,38.87-46.74v-26.17c-38.36,0-38.87-8.64-38.87-45.73v-11.69C204.75,5.01,180.92,.33,149.62,0c16.83,10.93,27.95,29.77,27.95,51.2Z"/><path class="d" d="M130.07,162.17v19.36c0,22.61-6.35,30.49-32.01,30.49s-32.01-7.87-32.01-30.49v-20.83c0-21.34-4.83-31.76-20.83-36.07,16-4.57,20.83-15.5,20.83-36.84v-19.31c0-22.61,6.35-30.49,32.01-30.49s32.01,7.88,32.01,30.49v18.6h27.79c-.57-5.98-.61-13.27-.61-22.16v-10.16c0-36.33-25.91-39.63-59.19-39.63s-59.19,3.3-59.19,39.63v10.16c0,37.09-.51,46.74-38.87,46.74v26.17c38.36,0,38.87,8.64,38.87,45.73v11.69c0,36.07,25.91,39.63,59.19,39.63s59.19-3.56,59.19-39.63v-11.69c0-8.58,.03-15.62,.55-21.4h-27.73Z"/><path class="g" d="M100.77,211.99c17.73-.42,25.42-5.19,28.1-16.96-3.47-1.01-6.23-2.46-8.38-4.42-3.64,9.06-11.89,12.68-28.46,12.83,2.3,3.57,5.25,6.35,8.75,8.54Z"/><path class="g" d="M164.66,194.22c-2.14,.84-4.6,1.46-7.43,1.89-.12,10.37-2.43,17.99-6.48,23.58,3.29-.04,6.5-.14,9.6-.31,2.78-5.33,4.31-12.15,4.31-20.88v-4.28Z"/></g></g></g></g></svg>